{
    "asset" : {
        "generator" : "Khronos glTF Blender I/O v1.2.75",
        "version" : "2.0"
    },
    "scene" : 0,
    "scenes" : [
        {
            "name" : "Scene",
            "nodes" : [
                0,
                1,
                2
            ]
        }
    ],
    "nodes" : [
        {
            "name" : "Camera.001",
            "rotation" : [
                0.483536034822464,
                0.33687159419059753,
                -0.20870360732078552,
                0.7804827094078064
            ],
            "translation" : [
                7.481131553649902,
                5.34366512298584,
                6.5076398849487305
            ]
        },
        {
            "name" : "Lamp",
            "rotation" : [
                0.16907575726509094,
                0.7558802962303162,
                -0.27217137813568115,
                0.570947527885437
            ],
            "translation" : [
                0,
                1.600000023841858,
                0
            ]
        },
        {
            "mesh" : 0,
            "name" : "vent_top1",
            "rotation" : [
                0.7071068286895752,
                0,
                0,
                0.7071067094802856
            ],
            "scale" : [
                0.8595625162124634,
                0.8595625162124634,
                0.8595625162124634
            ],
            "translation" : [
                0,
                2.8844916820526123,
                -0.7488527297973633
            ]
        }
    ],
    "materials" : [
        {
            "doubleSided" : true,
            "emissiveFactor" : [
                0,
                0,
                0
            ],
            "name" : "GLSLShader1.002",
            "normalTexture" : {
                "index" : 0,
                "texCoord" : 0
            },
            "pbrMetallicRoughness" : {
                "baseColorTexture" : {
                    "index" : 1,
                    "texCoord" : 0
                },
                "metallicFactor" : 0,
                "roughnessFactor" : 0
            }
        }
    ],
    "meshes" : [
        {
            "name" : "Mesh.002",
            "primitives" : [
                {
                    "attributes" : {
                        "POSITION" : 0,
                        "NORMAL" : 1,
                        "TANGENT" : 2,
                        "TEXCOORD_0" : 3
                    },
                    "indices" : 4,
                    "material" : 0
                }
            ]
        }
    ],
    "textures" : [
        {
            "source" : 0
        },
        {
            "source" : 1
        }
    ],
    "images" : [
        {
            "mimeType" : "image/png",
            "name" : "heatvent_nm_2k",
            "uri" : "heatvent_nm_2k.png"
        },
        {
            "mimeType" : "image/png",
            "name" : "heatvent_wAO",
            "uri" : "heatvent_wAO.png"
        }
    ],
    "accessors" : [
        {
            "bufferView" : 0,
            "componentType" : 5126,
            "count" : 33912,
            "max" : [
                12.737525939941406,
                -6.4105377197265625,
                9.204522132873535
            ],
            "min" : [
                -13.841339111328125,
                -20.682235717773438,
                -10.92926025390625
            ],
            "type" : "VEC3"
        },
        {
            "bufferView" : 1,
            "componentType" : 5126,
            "count" : 33912,
            "type" : "VEC3"
        },
        {
            "bufferView" : 2,
            "componentType" : 5126,
            "count" : 33912,
            "type" : "VEC4"
        },
        {
            "bufferView" : 3,
            "componentType" : 5126,
            "count" : 33912,
            "type" : "VEC2"
        },
        {
            "bufferView" : 4,
            "componentType" : 5123,
            "count" : 148806,
            "type" : "SCALAR"
        }
    ],
    "bufferViews" : [
        {
            "buffer" : 0,
            "byteLength" : 406944,
            "byteOffset" : 0
        },
        {
            "buffer" : 0,
            "byteLength" : 406944,
            "byteOffset" : 406944
        },
        {
            "buffer" : 0,
            "byteLength" : 542592,
            "byteOffset" : 813888
        },
        {
            "buffer" : 0,
            "byteLength" : 271296,
            "byteOffset" : 1356480
        },
        {
            "buffer" : 0,
            "byteLength" : 297612,
            "byteOffset" : 1627776
        }
    ],
    "buffers" : [
        {
            "byteLength" : 1925388,
            "uri" : "spacevent2.bin"
        }
    ]
}
